<svg width="200" height="200" viewBox="0 0 200 200" fill="none" xmlns="http://www.w3.org/2000/svg">
<path d="M91 12.124C96.5691 8.90874 103.431 8.90874 109 12.124L171.603 48.2676C177.172 51.483 180.603 57.4257 180.603 63.8564V136.144C180.603 142.574 177.172 148.517 171.603 151.732L109 187.876C103.431 191.091 96.5691 191.091 91 187.876L28.3975 151.732C22.8282 148.517 19.3975 142.574 19.3975 136.144V63.8564C19.3975 57.4257 22.8282 51.483 28.3975 48.2676L91 12.124Z" stroke="#0093DD" stroke-width="12"/>
<path d="M143.911 78.8065L154.727 87.9449C154.727 87.9449 155.608 113.923 156.202 131.42C156.796 148.917 149.605 158.159 149.605 158.159L123.595 173.05C123.595 173.05 146.505 155.262 145.708 131.776C144.911 108.289 143.911 78.8065 143.911 78.8065Z" fill="url(#paint0_linear_3049_113)"/>
<path d="M103.602 50.3978L116.89 45.5062C116.89 45.5062 139.914 57.5699 155.421 65.6952C170.928 73.8205 175.413 84.6376 175.413 84.6376L175.515 114.608C175.515 114.608 171.363 85.9025 150.548 74.9958C129.732 64.0892 103.602 50.3978 103.602 50.3978Z" fill="url(#paint1_linear_3049_113)"/>
<path d="M60.042 69.9017L62.0451 55.0491C62.0451 55.0491 84.0573 41.728 98.8834 32.7558C113.709 23.7836 125.641 26.3063 125.641 26.3063L152.746 44.3291C152.746 44.3291 124.826 30.6963 104.925 42.7398C85.0242 54.7833 60.042 69.9017 60.042 69.9017Z" fill="url(#paint2_linear_3049_113)"/>
<path d="M55.3586 120.339L44.7233 110.99C44.7233 110.99 44.35 85.0001 44.0986 67.4948C43.8472 49.9894 51.2173 40.8898 51.2173 40.8898L77.5135 26.5107C77.5135 26.5107 54.26 43.8464 54.5975 67.344C54.935 90.8415 55.3586 120.339 55.3586 120.339Z" fill="url(#paint3_linear_3049_113)"/>
<path d="M95.7856 149.419L82.4 154.037C82.4 154.037 59.6285 141.503 44.291 133.062C28.9536 124.62 24.6916 113.713 24.6916 113.713L25.2046 83.7467C25.2046 83.7467 28.7664 112.531 49.354 123.863C69.9416 135.194 95.7856 149.419 95.7856 149.419Z" fill="url(#paint4_linear_3049_113)"/>
<path d="M140.322 127.401L137.775 141.33C137.775 141.33 115.677 155.017 100.794 164.236C85.9104 173.454 74.316 171.814 74.316 171.814L48.4601 156.657C48.4601 156.657 75.2867 167.684 95.2649 155.309C115.243 142.935 140.322 127.401 140.322 127.401Z" fill="url(#paint5_linear_3049_113)"/>
<path d="M96 63.3094C98.4752 61.8803 101.525 61.8803 104 63.3094L129.775 78.1906C132.25 79.6197 133.775 82.2607 133.775 85.1188V114.881C133.775 117.739 132.25 120.38 129.775 121.809L104 136.691C101.525 138.12 98.4752 138.12 96 136.691L70.225 121.809C67.7498 120.38 66.225 117.739 66.225 114.881V85.1188C66.225 82.2607 67.7498 79.6197 70.225 78.1906L96 63.3094Z" fill="url(#paint6_linear_3049_113)"/>
<path d="M131.189 82.1306C131.669 81.8579 132.279 82.0258 132.552 82.5056C132.825 82.9858 132.658 83.597 132.177 83.8698L101 101.582V135C101 135.552 100.552 136 99.9997 136C99.4476 136 98.9997 135.552 98.9997 135V101.575L68.4978 83.8649C68.0202 83.5876 67.8581 82.9754 68.1355 82.4978C68.4128 82.0204 69.0242 81.8584 69.5017 82.1354L100.005 99.8464L131.189 82.1306Z" fill="#EAEAEA" fill-opacity="0.37"/>
<defs>
<linearGradient id="paint0_linear_3049_113" x1="137.415" y1="79.0269" x2="140.585" y2="172.473" gradientUnits="userSpaceOnUse">
<stop offset="0.1875" stop-color="#EB891B"/>
<stop offset="0.5625" stop-color="#68B92E"/>
<stop offset="0.942308" stop-color="#0093DD"/>
</linearGradient>
<linearGradient id="paint1_linear_3049_113" x1="100.585" y1="56.1553" x2="183.405" y2="99.55" gradientUnits="userSpaceOnUse">
<stop offset="0.1875" stop-color="#EB891B"/>
<stop offset="0.5625" stop-color="#68B92E"/>
<stop offset="0.942308" stop-color="#0093DD"/>
</linearGradient>
<linearGradient id="paint2_linear_3049_113" x1="63.7823" y1="76.0823" x2="142.963" y2="28.1645" gradientUnits="userSpaceOnUse">
<stop offset="0.1875" stop-color="#EB891B"/>
<stop offset="0.5625" stop-color="#68B92E"/>
<stop offset="0.942308" stop-color="#0093DD"/>
</linearGradient>
<linearGradient id="paint3_linear_3049_113" x1="61.858" y1="120.245" x2="60.5152" y2="26.7548" gradientUnits="userSpaceOnUse">
<stop offset="0.1875" stop-color="#EB891B"/>
<stop offset="0.5625" stop-color="#68B92E"/>
<stop offset="0.942308" stop-color="#0093DD"/>
</linearGradient>
<linearGradient id="paint4_linear_3049_113" x1="98.9198" y1="143.724" x2="17.0074" y2="98.6398" gradientUnits="userSpaceOnUse">
<stop offset="0.1875" stop-color="#EB891B"/>
<stop offset="0.5625" stop-color="#68B92E"/>
<stop offset="0.942308" stop-color="#0093DD"/>
</linearGradient>
<linearGradient id="paint5_linear_3049_113" x1="136.899" y1="121.875" x2="57.4118" y2="171.109" gradientUnits="userSpaceOnUse">
<stop offset="0.1875" stop-color="#EB891B"/>
<stop offset="0.5625" stop-color="#68B92E"/>
<stop offset="0.942308" stop-color="#0093DD"/>
</linearGradient>
<linearGradient id="paint6_linear_3049_113" x1="100" y1="61" x2="100" y2="139" gradientUnits="userSpaceOnUse">
<stop offset="0.134615" stop-color="#EB891B"/>
<stop offset="0.524038" stop-color="#68B92E"/>
<stop offset="0.918269" stop-color="#0093DD"/>
</linearGradient>
</defs>
</svg>
